<?xml version="1.0" standalone="no"?>
<!DOCTYPE svg PUBLIC "-//W3C//DTD SVG 20010904//EN"
 "http://www.w3.org/TR/2001/REC-SVG-20010904/DTD/svg10.dtd">
<svg version="1.0" xmlns="http://www.w3.org/2000/svg"
 width="240.000000pt" height="240.000000pt" viewBox="0 0 240.000000 240.000000"
 preserveAspectRatio="xMidYMid meet">
<metadata>
Created by potrace 1.11, written by Peter Selinger 2001-2013
</metadata>
<g transform="translate(0.000000,240.000000) scale(0.100000,-0.100000)"
fill="#000000" stroke="none">
<path d="M363 2381 c-167 -48 -314 -202 -352 -371 -5 -25 -10 -194 -11 -377
l0 -333 550 0 550 0 0 550 0 550 -337 -1 c-289 -1 -347 -3 -400 -18z m118
-391 l70 -69 70 71 71 71 36 -36 36 -36 -72 -70 -71 -70 69 -70 c39 -39 70
-72 70 -74 0 -1 -15 -18 -34 -36 l-34 -33 -71 70 -71 70 -71 -70 -71 -70 -36
35 -35 36 71 70 70 70 -70 72 -70 71 33 34 c18 19 34 34 36 34 2 0 35 -31 74
-70z"/>
<path d="M1300 1850 l0 -550 550 0 550 0 0 333 c-1 360 -4 389 -56 496 -35 71
-142 178 -214 214 -108 53 -126 55 -491 57 l-339 1 0 -551z m582 233 c22 -20
23 -46 2 -67 -20 -20 -48 -20 -68 0 -30 29 -9 84 31 84 9 0 25 -7 35 -17z
m218 -233 l0 -50 -250 0 -250 0 0 50 0 50 250 0 250 0 0 -50z m-218 -167 c22
-20 23 -46 2 -67 -20 -20 -48 -20 -68 0 -30 29 -9 84 31 84 9 0 25 -7 35 -17z"/>
<path d="M0 765 c1 -374 6 -413 71 -521 66 -109 199 -206 319 -233 25 -5 195
-10 377 -11 l333 0 0 550 0 550 -550 0 -550 0 0 -335z m600 -65 l0 -100 100 0
100 0 0 -50 0 -50 -100 0 -100 0 0 -100 0 -100 -50 0 -50 0 0 100 0 100 -100
0 -100 0 0 50 0 50 100 0 100 0 0 100 0 100 50 0 50 0 0 -100z"/>
<path d="M1300 550 l0 -550 335 0 c374 1 413 6 521 71 109 66 208 200 233 319
6 25 10 195 11 377 l0 333 -550 0 -550 0 0 -550z m800 100 l0 -50 -250 0 -250
0 0 50 0 50 250 0 250 0 0 -50z m0 -200 l0 -50 -250 0 -250 0 0 50 0 50 250 0
250 0 0 -50z"/>
</g>
</svg>
